<?xml version="1.0" encoding="utf-8"?>
<!-- Generator: Adobe Illustrator 19.2.1, SVG Export Plug-In . SVG Version: 6.00 Build 0)  -->
<svg version="1.1" id="layer" xmlns="http://www.w3.org/2000/svg" xmlns:xlink="http://www.w3.org/1999/xlink" x="0px" y="0px"
	 viewBox="0 0 652 652" style="enable-background:new 0 0 652 652;" xml:space="preserve">
<style type="text/css">
	.st0{fill:#1DB1A8;}
</style>
<polygon class="st0" points="577.9,230.1 577.9,231.5 581.1,231.5 581.1,243.9 582.5,243.9 582.5,231.5 585.9,231.5 585.9,230.1 "/>
<g>
	<path class="st0" d="M595.5,230.1h2.5v13.8h-1.4v-11.3c0-0.6,0-1.2,0-1.8h0c-0.1,0.8-0.3,1.3-0.4,1.9l-2.7,11.2h-1.7l-2.7-11.4
		c-0.1-0.5-0.2-0.9-0.4-1.7h-0.1c0,0.6,0.1,1.2,0.1,1.8v11.3h-1.4v-13.8h2.5l2.5,10.7c0.1,0.6,0.2,1.2,0.3,2h0
		c0.1-0.7,0.2-1.4,0.3-2.1L595.5,230.1z"/>
	<polygon class="st0" points="599,244.4 603.1,230.1 604.2,230.1 600.1,244.4 	"/>
</g>
<g>
	<path class="st0" d="M613.4,230.1h2.5v13.8h-1.4v-11.3c0-0.6,0-1.2,0-1.8h0c-0.1,0.8-0.3,1.3-0.4,1.9l-2.7,11.2h-1.7l-2.7-11.4
		c-0.1-0.5-0.2-0.9-0.4-1.7h0c0,0.6,0,1.2,0,1.8v11.3h-1.4v-13.8h2.5l2.5,10.7c0.1,0.6,0.2,1.2,0.3,2h0c0.1-0.7,0.2-1.4,0.3-2.1
		L613.4,230.1z"/>
	<path class="st0" d="M624.2,234.3c0-1.6-0.5-3-2.3-3c-2.4,0-2.5,3.8-2.5,5.6c-0.1,1.9-0.1,6.1,2.5,6.1c1.7,0,2-1.5,2.2-3
		c0-0.3,0.1-0.6,0.1-0.9h1.4c0,0.3,0,0.6-0.1,0.8c-0.1,1.1-0.1,2-0.7,2.9c-0.7,1-1.5,1.6-2.8,1.6c-3.9,0-4-4.1-4-7.4
		c0-3.1,0.4-7,4-7c2.4,0,3.7,1.9,3.6,4.4H624.2z"/>
</g>
<g>
	<path class="st0" d="M144.2,279.9c0-30.3-19.4-50.1-54.4-50.1H25.6v167.7h33.7v-63.1h16.9c15.2,23.9,32.4,49.9,48.9,75.3
		c5,7.8,13.8,11.8,22.8,11.8h24.7l-61-91.3C135.5,321.3,144.2,306.2,144.2,279.9 M89.8,306.1H59.3v-47.9h30.5
		c10.9,0,19.6,6.5,19.6,24S100.7,306.1,89.8,306.1"/>
	<path class="st0" d="M281.4,277.8H260l38.8,57.7l-43.5,62H278c9.6,0,17.4-4,22.7-11.8l16.2-22.9c10,14.6,11.9,17.8,15.3,22.9
		c5.3,7.8,13.1,11.8,22.7,11.8h21.4c0,0-71.3-106.6-72.2-108C298.8,281.8,291,277.8,281.4,277.8"/>
	<path class="st0" d="M504.6,229.8h-12v167.7h30.5V247C523.1,236.8,514.8,229.8,504.6,229.8"/>
	<path class="st0" d="M550.3,230.1h-12v167.5h30.5V247.3C568.8,237,560.6,230.1,550.3,230.1"/>
	<path class="st0" d="M228.1,371.4h-18.5c-16.5,0-26.1-6.5-26.1-23.9h76.2c0,0,0.5-9.2,0.5-15.2c-0.5-36.9-20.2-56.6-52.8-56.6
		c-34.8,0-56.6,19.7-56.6,61c0,41.4,18.5,61,56.6,61h39.2v-8.8C246.6,378.6,238.3,371.4,228.1,371.4 M207.4,301.7
		c15.1,0,20.8,6.3,21.8,21.9h-45.7C184.5,308,192.3,301.7,207.4,301.7"/>
	<path class="st0" d="M425.1,277.8h-39.2v8.6c0,10.2,8.3,17.6,18.5,17.6H423c16.5,0,23.9,4.4,23.9,19.5h-32.6
		c-24,0-39.2,11-39.2,35.9c0,25.1,15.2,38.1,39.2,38.1h63.1v-67.4C477.4,293.1,462.2,277.8,425.1,277.8 M446.9,371.5h-28.3
		c-6.5,0-13.1-2-13.1-12c0-9.7,6.5-12,13.1-12h28.3V371.5z"/>
	<path class="st0" d="M330.1,317.3h21.7c5.1,0,9.4-2,12.6-5.2c3.2-3.2,5.2-7.5,5.2-12.6v-21.7h-21.7c-5.1,0-9.4,2-12.6,5.2
		c-3.2,3.2-5.2,7.5-5.2,12.6V317.3z"/>
</g>
</svg>
