<?xml version="1.0" standalone="no"?>
<!DOCTYPE svg PUBLIC "-//W3C//DTD SVG 20010904//EN"
 "http://www.w3.org/TR/2001/REC-SVG-20010904/DTD/svg10.dtd">
<svg version="1.0" xmlns="http://www.w3.org/2000/svg"
 width="6031.000000pt" height="1597.000000pt" viewBox="0 0 6031.000000 1597.000000"
 preserveAspectRatio="xMidYMid meet">

<g transform="translate(0.000000,1597.000000) scale(0.100000,-0.100000)"
fill="#000000" stroke="none">
<path d="M654 15145 c3 -11 6 -3286 6 -7277 l0 -7258 9015 0 9015 0 0 5493 c0
3874 -3 5555 -11 5707 -20 385 -103 797 -229 1125 -34 88 -67 171 -74 185 -95
178 -158 297 -164 307 -49 80 -201 313 -214 328 -9 11 -55 70 -103 130 -108
139 -335 368 -485 490 -63 51 -124 102 -135 112 -11 10 -85 58 -165 106 -80
49 -152 92 -160 98 -40 24 -332 179 -338 179 -4 0 -77 27 -162 61 -289 113
-757 211 -1065 224 -88 3 -3440 7 -7448 8 -7284 2 -7288 2 -7283 -18z m14961
-658 c386 -72 594 -138 875 -279 214 -107 499 -310 676 -481 45 -43 91 -85
103 -94 26 -18 254 -321 341 -453 236 -360 387 -841 425 -1365 12 -160 14
-1016 15 -5377 l0 -5188 -8375 0 -8375 0 0 6635 0 6635 7083 -2 7082 -3 150
-28z"/>
<path d="M2830 13190 l0 -60 273 -2 272 -3 3 -887 2 -888 65 0 65 0 0 890 0
890 275 0 276 0 -3 58 -3 57 -612 3 -613 2 0 -60z"/>
<path d="M4380 12300 l0 -950 65 0 65 0 0 455 0 455 540 0 540 0 0 -455 0
-455 65 0 65 0 0 950 0 951 -62 -3 -63 -3 -3 -432 -2 -433 -540 0 -540 0 -2
433 -3 432 -62 3 -63 3 0 -951z"/>
<path d="M6210 12300 l0 -950 465 0 465 0 0 60 0 60 -400 0 -400 0 0 390 0
390 350 0 350 0 0 60 0 60 -350 0 -350 0 2 378 3 377 378 3 378 2 -3 58 -3 57
-442 3 -443 2 0 -950z"/>
<path d="M10407 12113 c-4 -3 -7 -1808 -7 -4010 l0 -4003 245 0 245 0 0 481
c0 366 3 480 12 477 6 -2 39 -49 72 -104 344 -565 782 -866 1396 -961 145 -22
520 -25 655 -4 352 52 639 157 896 326 481 318 868 872 1049 1502 109 380 154
728 153 1188 0 357 -22 580 -85 869 -169 781 -626 1377 -1243 1619 -498 197
-1130 204 -1645 20 -133 -47 -342 -150 -457 -225 -306 -197 -541 -451 -728
-786 -31 -56 -61 -102 -66 -102 -5 0 -9 752 -9 1860 l0 1860 -238 0 c-131 0
-242 -3 -245 -7z m2793 -2938 c508 -92 915 -417 1165 -930 183 -375 267 -833
251 -1372 -23 -810 -228 -1422 -630 -1890 -354 -410 -825 -602 -1380 -563
-589 42 -1038 303 -1368 795 -193 286 -305 608 -338 975 -18 191 -8 1113 13
1245 70 436 221 788 474 1105 299 374 679 580 1193 646 144 18 493 12 620 -11z"/>
<path d="M6835 9643 c-211 -12 -406 -47 -579 -104 -453 -149 -813 -449 -1078
-901 -35 -59 -69 -107 -75 -107 -10 -1 -13 104 -13 494 l0 495 -240 0 -240 0
0 -2710 0 -2710 240 0 239 0 4 1663 c4 1797 1 1717 57 1975 80 377 280 736
557 1003 185 178 372 293 602 369 196 65 354 90 580 90 390 0 693 -113 926
-345 211 -209 349 -513 420 -925 50 -284 48 -221 52 -2082 l4 -1748 245 0 245
0 -4 1793 c-5 1853 -4 1849 -48 2125 -111 712 -436 1219 -933 1457 -266 127
-619 189 -961 168z"/>
<path d="M49015 13240 c-311 -30 -547 -139 -738 -339 -280 -295 -328 -742
-120 -1101 85 -145 320 -338 666 -545 654 -392 794 -508 871 -723 69 -194 52
-451 -41 -611 -109 -190 -309 -303 -601 -342 -125 -17 -404 -6 -513 20 -157
36 -318 100 -466 186 l-63 36 0 -149 0 -149 80 -37 c95 -43 271 -95 431 -128
100 -20 143 -23 344 -22 196 0 245 3 331 21 475 100 772 422 809 874 8 102 -8
254 -37 348 -28 93 -102 229 -165 306 -107 128 -330 295 -628 470 -593 348
-772 498 -835 703 -44 141 -50 322 -14 442 62 210 233 379 458 455 86 29 253
54 357 55 218 0 485 -55 692 -145 16 -7 17 3 17 129 l0 136 -27 11 c-57 22
-252 67 -358 83 -141 20 -336 27 -450 16z"/>
<path d="M22050 11286 l0 -1896 130 0 130 0 0 759 0 759 378 5 c402 5 473 12
649 63 112 32 289 118 374 183 145 110 287 291 354 450 69 164 95 303 96 507
1 589 -279 926 -861 1040 -71 14 -178 18 -667 21 l-583 4 0 -1895z m1068 1643
c288 -31 493 -132 631 -310 72 -94 125 -255 141 -429 30 -352 -85 -659 -314
-835 -114 -87 -290 -157 -467 -185 -41 -7 -237 -14 -436 -17 l-363 -5 0 896 0
896 355 0 c196 0 399 -5 453 -11z"/>
<path d="M26586 12837 c-133 -355 -407 -1081 -551 -1462 -78 -206 -363 -961
-629 -1667 -64 -169 -116 -310 -116 -313 0 -3 64 -5 143 -5 l142 0 128 348
c70 191 167 455 216 587 l88 240 824 0 823 0 131 -355 c72 -195 169 -460 215
-587 l85 -233 147 0 148 0 -34 93 c-32 87 -691 1852 -1091 2922 -100 270 -207
554 -236 633 l-52 142 -126 0 -126 0 -129 -343z m254 8 c0 -3 16 -59 35 -123
34 -119 81 -252 328 -927 74 -203 185 -507 246 -674 61 -167 110 -306 108
-308 -2 -2 -330 -2 -729 -1 l-725 3 132 365 c73 201 221 609 329 907 186 514
256 718 256 749 0 8 5 14 10 14 6 0 10 -2 10 -5z"/>
<path d="M29660 11286 l0 -1896 130 0 130 0 0 845 0 845 269 0 c316 0 385 -9
507 -70 107 -53 204 -154 289 -301 32 -57 183 -376 335 -709 l275 -605 148 -3
c81 -1 147 -1 147 1 0 4 -151 331 -424 917 -81 173 -169 356 -195 407 -100
189 -207 323 -317 395 l-64 42 106 28 c317 83 551 263 681 523 137 273 144
659 19 931 -47 102 -103 178 -187 260 -144 137 -273 204 -494 256 -86 21 -120
22 -722 25 l-633 4 0 -1895z m1147 1644 c241 -30 434 -125 550 -269 57 -71
116 -195 138 -291 28 -119 24 -319 -8 -442 -71 -272 -265 -472 -541 -557 -143
-44 -227 -51 -638 -51 l-388 0 0 810 0 810 403 0 c221 0 439 -5 484 -10z"/>
<path d="M32960 13060 l0 -120 550 0 550 0 0 -1775 0 -1775 130 0 130 0 0
1775 0 1775 545 0 545 0 0 120 0 120 -1225 0 -1225 0 0 -120z"/>
<path d="M36690 11285 l0 -1895 130 0 130 0 -2 1650 c-2 908 0 1649 4 1648 4
-2 31 -41 60 -88 30 -47 216 -305 413 -573 198 -269 389 -528 425 -577 36 -49
139 -189 230 -312 360 -489 1098 -1491 1189 -1615 l96 -132 93 0 92 -1 0 1895
0 1895 -130 0 -130 0 1 -1537 c1 -846 4 -1584 8 -1641 3 -56 3 -102 0 -102 -4
0 -28 33 -53 74 -25 40 -85 127 -133 192 -82 113 -536 728 -648 879 -28 39
-200 270 -380 515 -181 245 -403 546 -495 670 -91 124 -287 388 -434 588
l-267 362 -100 0 -99 0 0 -1895z"/>
<path d="M41160 11285 l0 -1895 930 0 931 0 -3 118 -3 117 -797 3 -798 2 0
775 0 775 700 0 700 0 0 120 0 120 -700 0 -700 0 0 760 0 760 755 0 755 0 0
120 0 120 -885 0 -885 0 0 -1895z"/>
<path d="M44500 11286 l0 -1896 130 0 130 0 0 845 0 845 269 0 c316 0 385 -9
508 -70 64 -32 95 -55 151 -114 124 -134 170 -225 597 -1173 l150 -332 148 -1
c81 0 147 2 147 4 0 9 -493 1065 -575 1231 -46 94 -107 206 -136 250 -65 97
-189 224 -246 251 -24 10 -43 21 -43 24 0 3 47 17 106 32 314 81 551 262 681
523 137 273 144 659 19 931 -124 267 -350 438 -681 516 -86 20 -121 22 -722
25 l-633 4 0 -1895z m1262 1626 c254 -61 425 -189 518 -387 55 -115 72 -205
72 -360 0 -137 -15 -229 -53 -330 -81 -218 -271 -389 -514 -464 -138 -43 -235
-51 -642 -51 l-383 0 0 811 0 810 458 -4 c421 -4 464 -6 544 -25z"/>
<path d="M51450 11285 l0 -1895 130 0 130 0 0 910 0 910 1085 0 1085 0 0 -910
0 -910 130 0 130 0 0 1895 0 1895 -130 0 -130 0 0 -865 0 -865 -1085 0 -1085
0 0 865 0 865 -130 0 -130 0 0 -1895z"/>
<path d="M55740 11285 l0 -1895 130 0 130 0 0 1895 0 1895 -130 0 -130 0 0
-1895z"/>
<path d="M57610 11286 l0 -1896 130 0 130 0 0 759 0 759 373 5 c493 6 622 28
852 142 131 65 216 127 314 230 213 225 312 489 312 835 0 271 -52 465 -171
640 -44 64 -153 172 -223 219 -67 45 -216 113 -307 139 -186 53 -206 55 -827
59 l-583 4 0 -1895z m1070 1644 c149 -19 260 -49 370 -102 92 -44 115 -61 190
-137 63 -64 95 -105 123 -162 71 -145 103 -343 86 -546 -34 -423 -269 -696
-681 -792 -129 -30 -288 -41 -605 -41 l-293 0 0 895 0 895 363 0 c199 0 401
-5 447 -10z"/>
<path d="M30264 6250 c-407 -32 -779 -185 -1049 -432 -370 -338 -579 -759
-641 -1294 -19 -166 -14 -498 10 -662 132 -885 744 -1477 1571 -1520 431 -23
812 58 1218 258 l127 63 -2 809 -3 809 -565 -1 c-311 0 -571 0 -577 0 -10 0
-13 -30 -13 -115 l0 -115 448 -2 447 -3 0 -625 0 -624 -40 -23 c-114 -65 -326
-136 -504 -169 -116 -22 -451 -30 -578 -15 -560 69 -981 408 -1168 942 -84
239 -110 419 -109 749 0 217 3 273 22 375 74 407 222 697 486 953 222 214 459
333 776 388 141 24 430 25 586 1 206 -32 447 -104 641 -193 l73 -33 0 144 0
143 -78 30 c-195 75 -403 127 -597 151 -124 15 -358 20 -481 11z"/>
<path d="M47252 6250 c-279 -27 -518 -130 -695 -299 -129 -123 -203 -243 -254
-408 -24 -79 -27 -104 -27 -248 -1 -137 2 -172 22 -245 49 -178 132 -315 264
-432 151 -133 266 -213 583 -403 445 -267 622 -397 712 -522 143 -200 160
-548 37 -762 -107 -186 -305 -300 -589 -341 -109 -15 -360 -12 -456 6 -196 36
-371 102 -555 210 l-44 26 0 -149 0 -150 78 -36 c94 -44 245 -89 412 -124 153
-31 437 -43 584 -23 280 37 506 139 659 300 157 164 233 329 258 565 28 253
-48 503 -208 688 -123 142 -334 297 -668 492 -682 398 -817 549 -819 915 0 87
5 144 16 187 55 202 214 373 420 453 290 112 727 82 1091 -75 16 -7 17 3 17
129 l0 136 -27 11 c-57 22 -252 67 -358 83 -142 20 -336 27 -453 16z"/>
<path d="M57460 6250 c-420 -34 -783 -186 -1072 -447 -345 -312 -538 -689
-615 -1198 -27 -186 -25 -605 5 -778 41 -239 114 -453 213 -631 110 -195 291
-403 463 -533 215 -161 481 -267 772 -308 123 -18 424 -20 552 -5 209 24 395
67 582 134 119 43 110 30 110 166 0 66 -3 120 -7 120 -4 0 -63 -22 -133 -49
-151 -59 -331 -104 -500 -127 -173 -22 -503 -15 -642 15 -547 118 -962 524
-1103 1081 -40 159 -56 276 -62 475 -14 477 81 860 292 1175 313 466 803 704
1390 676 270 -13 480 -61 748 -171 16 -7 17 2 15 131 l-3 139 -84 28 c-252 85
-645 130 -921 107z"/>
<path d="M22050 4295 l0 -1895 930 0 931 0 -3 117 -3 118 -797 3 -798 2 0 775
0 775 700 0 700 0 0 120 0 120 -700 0 -700 0 0 760 0 760 755 0 755 0 0 120 0
120 -885 0 -885 0 0 -1895z"/>
<path d="M24840 4295 l0 -1895 130 0 130 0 -2 1650 c-2 908 -1 1650 2 1650 3
0 30 -39 60 -87 30 -48 113 -166 184 -263 110 -149 266 -360 586 -795 37 -49
201 -272 365 -495 164 -223 343 -466 399 -541 56 -75 263 -358 461 -627 l360
-491 93 0 92 -1 0 1895 0 1895 -131 0 -130 0 3 -1639 c2 -902 2 -1638 1 -1637
-2 1 -36 52 -76 112 -40 60 -237 332 -438 604 -201 272 -489 662 -639 865
-398 539 -450 609 -505 685 -27 38 -176 239 -330 447 -154 208 -310 420 -348
471 l-68 92 -99 0 -100 0 0 -1895z"/>
<path d="M32460 4295 l0 -1895 130 0 130 0 0 1895 0 1895 -130 0 -130 0 0
-1895z"/>
<path d="M33780 4295 l0 -1895 130 0 130 0 -2 1650 c-2 908 0 1649 4 1648 4
-2 31 -42 61 -89 45 -72 842 -1162 1217 -1664 88 -118 980 -1330 1054 -1432
l81 -112 93 0 92 -1 0 1895 0 1895 -131 0 -130 0 3 -1640 c2 -902 2 -1640 2
-1640 -1 0 -23 34 -49 76 -43 69 -164 234 -747 1024 -103 140 -240 325 -302
410 -63 85 -170 230 -238 321 -68 92 -195 265 -284 385 -88 121 -259 352 -379
514 -120 162 -259 351 -310 420 l-92 125 -101 3 -102 3 0 -1896z"/>
<path d="M37700 4295 l0 -1895 930 0 931 0 -3 117 -3 118 -797 3 -798 2 0 775
0 775 700 0 700 0 0 120 0 120 -700 0 -700 0 0 760 0 760 755 0 755 0 0 120 0
120 -885 0 -885 0 0 -1895z"/>
<path d="M40490 4295 l0 -1895 930 0 930 0 0 120 0 120 -800 0 -800 0 0 775 0
775 700 0 700 0 0 120 0 120 -700 0 -700 0 0 760 0 760 755 0 755 0 0 120 0
120 -885 0 -885 0 0 -1895z"/>
<path d="M43280 4295 l0 -1895 130 0 130 0 0 846 0 846 308 -4 c339 -5 355 -7
484 -75 89 -46 186 -149 263 -278 59 -99 178 -353 470 -1002 l150 -332 148 -1
c81 0 147 2 147 5 0 5 -359 778 -511 1100 -179 378 -287 534 -432 622 l-60 36
94 24 c367 95 621 309 739 625 94 254 84 599 -24 834 -50 106 -104 181 -199
270 -153 145 -321 223 -563 259 -79 12 -218 15 -686 15 l-588 0 0 -1895z
m1155 1644 c306 -42 515 -175 621 -394 57 -118 76 -210 76 -370 0 -118 -4
-156 -25 -237 -71 -272 -266 -472 -541 -557 -143 -44 -227 -51 -638 -51 l-388
0 0 810 0 810 409 0 c236 0 442 -5 486 -11z"/>
<path d="M50710 4295 l0 -1895 130 0 130 0 0 1895 0 1895 -130 0 -130 0 0
-1895z"/>
<path d="M52030 4295 l0 -1895 130 0 130 0 -2 1650 c-2 908 0 1649 4 1648 4
-2 31 -42 61 -89 30 -47 184 -263 343 -478 159 -216 318 -432 354 -481 36 -49
262 -356 502 -682 241 -326 517 -701 615 -833 97 -132 252 -342 344 -467 92
-124 174 -236 181 -247 11 -19 22 -21 105 -21 l93 0 0 1895 0 1895 -130 0
-130 0 1 -1537 c1 -846 4 -1584 8 -1641 3 -56 3 -101 0 -100 -4 2 -49 65 -100
141 -52 75 -186 262 -299 414 -113 152 -284 384 -380 514 -165 224 -918 1243
-1408 1907 l-223 302 -100 0 -99 0 0 -1895z"/>
<path d="M59437 2766 c-60 -22 -87 -47 -117 -111 -54 -112 6 -254 124 -291
143 -45 280 54 281 202 0 114 -81 200 -197 210 -32 3 -68 -1 -91 -10z"/>
</g>
</svg>
